<?xml version="1.0" encoding="utf-8"?>
<!-- Generator: Adobe Illustrator 16.0.0, SVG Export Plug-In . SVG Version: 6.00 Build 0)  -->
<!DOCTYPE svg PUBLIC "-//W3C//DTD SVG 1.1//EN" "http://www.w3.org/Graphics/SVG/1.1/DTD/svg11.dtd">
<svg version="1.1" id="Layer_1" xmlns="http://www.w3.org/2000/svg" xmlns:xlink="http://www.w3.org/1999/xlink" x="0px" y="0px"
	 width="1280px" height="2945.357px" viewBox="0 0 1280 2945.357" enable-background="new 0 0 1280 2945.357" xml:space="preserve">
<rect x="69.329" y="54.215" fill="#C7C8CA" stroke="#000000" stroke-miterlimit="10" width="51.671" height="54.43"/>
<rect x="141.42" y="54.215" fill="#C7C8CA" stroke="#000000" stroke-miterlimit="10" width="175.835" height="54.43"/>
<rect x="144.493" y="507.216" fill="#C7C8CA" stroke="#000000" stroke-miterlimit="10" width="216.456" height="54.431"/>
<path fill="#C7C8CA" stroke="#000000" stroke-miterlimit="10" d="M360.948,561.646"/>
<path fill="#C7C8CA" stroke="#000000" stroke-miterlimit="10" d="M144.493,507.528"/>
<text transform="matrix(1 0 0 1 141.4917 421.9775)"><tspan x="0" y="0" font-family="'Helvetica-Light'" font-size="44.9375">Tagline Text Would</tspan><tspan x="0" y="53.925" font-family="'Helvetica-Light'" font-size="44.9375">Go Right Here</tspan></text>
<path fill="#C7C8CA" stroke="#000000" stroke-miterlimit="10" d="M691.249,720V150.551c0-37.992,30.799-68.792,68.791-68.792
	l275.169,91.723c37.806,11.316,68.792,30.798,68.792,68.791v477.725"/>
<g>
	<text transform="matrix(1 0 0 1 868.3047 711.082)" font-family="'Helvetica'" font-size="21.1088">Phone</text>
</g>
<g>
	<text transform="matrix(1 0 0 1 188.1543 543.792)" font-family="'Helvetica'" font-size="21.1088">DOWNLOAD</text>
</g>
<rect x="144.493" y="586.707" fill="#C7C8CA" stroke="#000000" stroke-miterlimit="10" width="32.927" height="32.927"/>
<rect x="235.956" y="586.707" fill="#C7C8CA" stroke="#000000" stroke-miterlimit="10" width="32.927" height="32.927"/>
<rect x="327.419" y="586.707" fill="#C7C8CA" stroke="#000000" stroke-miterlimit="10" width="32.927" height="32.927"/>
<rect y="720" fill="#C7C8CA" width="1280" height="613"/>
<path fill="#FFFFFF" stroke="#000000" stroke-miterlimit="10" d="M534.888,1331.634v-448c0-27.614-22.386-50-50-50H194.878
	c-27.614,0-50,22.386-50,50v448"/>
<rect x="587.165" y="975.785" fill="#C7C8CA" stroke="#000000" stroke-miterlimit="10" width="51.671" height="54.43"/>
<text transform="matrix(1 0 0 1 659.4922 1019.9775)" font-family="'Helvetica-Light'" font-size="44.9375">Headline</text>
<rect x="587.165" y="1059" fill="none" width="527.835" height="148"/>
<text transform="matrix(1 0 0 1 587.1646 1071.96)"><tspan x="0" y="0" font-family="'Helvetica-Light'" font-size="18">Lorem ipsum dolor sit amet, consectetuer adipiscing elit. Aenean </tspan><tspan x="0" y="27" font-family="'Helvetica-Light'" font-size="18">commodo ligula eget dolor. Aenean massa. Cum sociis natoque </tspan><tspan x="0" y="54" font-family="'Helvetica-Light'" font-size="18">penatibus et magnis dis parturient montes, nascetur ridiculus </tspan><tspan x="0" y="81" font-family="'Helvetica-Light'" font-size="18">mus. Donec quam felis, ultricies nec, pellentesque eu, pretium </tspan><tspan x="0" y="108" font-family="'Helvetica-Light'" font-size="18">quis, sem. Nulla consequat massa quis enim. </tspan></text>
<rect y="1944.634" fill="#C7C8CA" width="1280" height="614.366"/>
<rect x="0" y="2830.357" fill="#C7C8CA" width="1280" height="115"/>
<path fill="#FFFFFF" stroke="#000000" stroke-miterlimit="10" d="M534.888,2557.634v-448c0-27.614-22.386-50-50-50H194.878
	c-27.614,0-50,22.386-50,50v448"/>
<rect x="587.165" y="2201.785" fill="#C7C8CA" stroke="#000000" stroke-miterlimit="10" width="51.671" height="54.43"/>
<text transform="matrix(1 0 0 1 659.4922 2245.9775)" font-family="'Helvetica-Light'" font-size="44.9375">Headline</text>
<rect x="587.165" y="2285" fill="none" width="527.835" height="148"/>
<text transform="matrix(1 0 0 1 587.1646 2297.96)"><tspan x="0" y="0" font-family="'Helvetica-Light'" font-size="18">Lorem ipsum dolor sit amet, consectetuer adipiscing elit. Aenean </tspan><tspan x="0" y="27" font-family="'Helvetica-Light'" font-size="18">commodo ligula eget dolor. Aenean massa. Cum sociis natoque </tspan><tspan x="0" y="54" font-family="'Helvetica-Light'" font-size="18">penatibus et magnis dis parturient montes, nascetur ridiculus </tspan><tspan x="0" y="81" font-family="'Helvetica-Light'" font-size="18">mus. Donec quam felis, ultricies nec, pellentesque eu, pretium </tspan><tspan x="0" y="108" font-family="'Helvetica-Light'" font-size="18">quis, sem. Nulla consequat massa quis enim. </tspan></text>
<rect y="1333" fill="#FFFFFF" width="1280" height="613"/>
<path fill="#C7C8CA" stroke="#000000" stroke-miterlimit="10" d="M1115,1944.634v-448c0-27.614-22.386-50-50-50H774.99
	c-27.613,0-50,22.386-50,50v448"/>
<rect x="144.493" y="1588.785" fill="#C7C8CA" stroke="#000000" stroke-miterlimit="10" width="51.671" height="54.43"/>
<text transform="matrix(1 0 0 1 216.8198 1632.9775)" font-family="'Helvetica-Light'" font-size="44.9375">Headline</text>
<rect x="144.493" y="1672" fill="none" width="527.835" height="148"/>
<text transform="matrix(1 0 0 1 144.4927 1684.96)"><tspan x="0" y="0" font-family="'Helvetica-Light'" font-size="18">Lorem ipsum dolor sit amet, consectetuer adipiscing elit. Aenean </tspan><tspan x="0" y="27" font-family="'Helvetica-Light'" font-size="18">commodo ligula eget dolor. Aenean massa. Cum sociis natoque </tspan><tspan x="0" y="54" font-family="'Helvetica-Light'" font-size="18">penatibus et magnis dis parturient montes, nascetur ridiculus </tspan><tspan x="0" y="81" font-family="'Helvetica-Light'" font-size="18">mus. Donec quam felis, ultricies nec, pellentesque eu, pretium </tspan><tspan x="0" y="108" font-family="'Helvetica-Light'" font-size="18">quis, sem. Nulla consequat massa quis enim. </tspan></text>
<g>
	<rect x="531.772" y="2665" fill="#C7C8CA" stroke="#000000" stroke-miterlimit="10" width="216.456" height="54.431"/>
	<g>
		<text transform="matrix(1 0 0 1 575.4341 2701.5762)" font-family="'Helvetica'" font-size="21.1088">DOWNLOAD</text>
	</g>
</g>
<g>
	<text transform="matrix(1 0 0 1 469.6211 2903.5762)" font-family="'Helvetica'" font-size="21.1088">MENU</text>
</g>
<g>
	<text transform="matrix(1 0 0 1 748.2285 2903.5762)" font-family="'Helvetica'" font-size="21.1088">MENU</text>
</g>
<g>
	<text transform="matrix(1 0 0 1 613.6562 2903.5762)" font-family="'Helvetica'" font-size="21.1088">MENU</text>
</g>
</svg>
